<?xml version="1.0" encoding="utf-8" standalone="no"?>
<!DOCTYPE svg PUBLIC "-//W3C//DTD SVG 1.1//EN"
  "http://www.w3.org/Graphics/SVG/1.1/DTD/svg11.dtd">
<svg xmlns:xlink="http://www.w3.org/1999/xlink" width="460.8pt" height="345.6pt" viewBox="0 0 460.8 345.6" xmlns="http://www.w3.org/2000/svg" version="1.1">
 <metadata>
  <rdf:RDF xmlns:dc="http://purl.org/dc/elements/1.1/" xmlns:cc="http://creativecommons.org/ns#" xmlns:rdf="http://www.w3.org/1999/02/22-rdf-syntax-ns#">
   <cc:Work>
    <dc:type rdf:resource="http://purl.org/dc/dcmitype/StillImage"/>
    <dc:date>2022-11-25T00:18:26.066832</dc:date>
    <dc:format>image/svg+xml</dc:format>
    <dc:creator>
     <cc:Agent>
      <dc:title>Matplotlib v3.6.2, https://matplotlib.org/</dc:title>
     </cc:Agent>
    </dc:creator>
   </cc:Work>
  </rdf:RDF>
 </metadata>
 <defs>
  <style type="text/css">*{stroke-linejoin: round; stroke-linecap: butt}</style>
 </defs>
 <g id="figure_1">
  <g id="patch_1">
   <path d="M 0 345.6 
L 460.8 345.6 
L 460.8 0 
L 0 0 
z
" style="fill: #ffffff"/>
  </g>
  <g id="axes_1">
   <g id="patch_2">
    <path d="M 109.051709 254.5834 
Q 122.207558 232.526134 135.936116 209.508656 
" style="fill: none; stroke: #000000; stroke-linecap: round"/>
    <path d="M 112.164835 252.590836 
L 109.051709 254.5834 
L 109.325533 250.897361 
" style="fill: none; stroke: #000000; stroke-linecap: round"/>
   </g>
   <g id="text_1">
    <g id="patch_3">
     <path d="M 60.227865 290.880367 
L 134.332135 290.880367 
L 134.332135 257.759633 
L 60.227865 257.759633 
z
" style="fill: #ffffff; stroke: #000000; stroke-linejoin: miter"/>
    </g>
    <!-- gini = 0.0 -->
    <g transform="translate(77.079958 267.345678) scale(0.082649 -0.082649)">
     <defs>
      <path id="DejaVuSans-67" d="M 2906 1791 
Q 2906 2416 2648 2759 
Q 2391 3103 1925 3103 
Q 1463 3103 1205 2759 
Q 947 2416 947 1791 
Q 947 1169 1205 825 
Q 1463 481 1925 481 
Q 2391 481 2648 825 
Q 2906 1169 2906 1791 
z
M 3481 434 
Q 3481 -459 3084 -895 
Q 2688 -1331 1869 -1331 
Q 1566 -1331 1297 -1286 
Q 1028 -1241 775 -1147 
L 775 -588 
Q 1028 -725 1275 -790 
Q 1522 -856 1778 -856 
Q 2344 -856 2625 -561 
Q 2906 -266 2906 331 
L 2906 616 
Q 2728 306 2450 153 
Q 2172 0 1784 0 
Q 1141 0 747 490 
Q 353 981 353 1791 
Q 353 2603 747 3093 
Q 1141 3584 1784 3584 
Q 2172 3584 2450 3431 
Q 2728 3278 2906 2969 
L 2906 3500 
L 3481 3500 
L 3481 434 
z
" transform="scale(0.015625)"/>
      <path id="DejaVuSans-69" d="M 603 3500 
L 1178 3500 
L 1178 0 
L 603 0 
L 603 3500 
z
M 603 4863 
L 1178 4863 
L 1178 4134 
L 603 4134 
L 603 4863 
z
" transform="scale(0.015625)"/>
      <path id="DejaVuSans-6e" d="M 3513 2113 
L 3513 0 
L 2938 0 
L 2938 2094 
Q 2938 2591 2744 2837 
Q 2550 3084 2163 3084 
Q 1697 3084 1428 2787 
Q 1159 2491 1159 1978 
L 1159 0 
L 581 0 
L 581 3500 
L 1159 3500 
L 1159 2956 
Q 1366 3272 1645 3428 
Q 1925 3584 2291 3584 
Q 2894 3584 3203 3211 
Q 3513 2838 3513 2113 
z
" transform="scale(0.015625)"/>
      <path id="DejaVuSans-20" transform="scale(0.015625)"/>
      <path id="DejaVuSans-3d" d="M 678 2906 
L 4684 2906 
L 4684 2381 
L 678 2381 
L 678 2906 
z
M 678 1631 
L 4684 1631 
L 4684 1100 
L 678 1100 
L 678 1631 
z
" transform="scale(0.015625)"/>
      <path id="DejaVuSans-30" d="M 2034 4250 
Q 1547 4250 1301 3770 
Q 1056 3291 1056 2328 
Q 1056 1369 1301 889 
Q 1547 409 2034 409 
Q 2525 409 2770 889 
Q 3016 1369 3016 2328 
Q 3016 3291 2770 3770 
Q 2525 4250 2034 4250 
z
M 2034 4750 
Q 2819 4750 3233 4129 
Q 3647 3509 3647 2328 
Q 3647 1150 3233 529 
Q 2819 -91 2034 -91 
Q 1250 -91 836 529 
Q 422 1150 422 2328 
Q 422 3509 836 4129 
Q 1250 4750 2034 4750 
z
" transform="scale(0.015625)"/>
      <path id="DejaVuSans-2e" d="M 684 794 
L 1344 794 
L 1344 0 
L 684 0 
L 684 794 
z
" transform="scale(0.015625)"/>
     </defs>
     <use xlink:href="#DejaVuSans-67"/>
     <use xlink:href="#DejaVuSans-69" x="63.476562"/>
     <use xlink:href="#DejaVuSans-6e" x="91.259766"/>
     <use xlink:href="#DejaVuSans-69" x="154.638672"/>
     <use xlink:href="#DejaVuSans-20" x="182.421875"/>
     <use xlink:href="#DejaVuSans-3d" x="214.208984"/>
     <use xlink:href="#DejaVuSans-20" x="297.998047"/>
     <use xlink:href="#DejaVuSans-30" x="329.785156"/>
     <use xlink:href="#DejaVuSans-2e" x="393.408203"/>
     <use xlink:href="#DejaVuSans-30" x="425.195312"/>
    </g>
    <!-- samples = 103 -->
    <g transform="translate(66.125032 276.600608) scale(0.082649 -0.082649)">
     <defs>
      <path id="DejaVuSans-73" d="M 2834 3397 
L 2834 2853 
Q 2591 2978 2328 3040 
Q 2066 3103 1784 3103 
Q 1356 3103 1142 2972 
Q 928 2841 928 2578 
Q 928 2378 1081 2264 
Q 1234 2150 1697 2047 
L 1894 2003 
Q 2506 1872 2764 1633 
Q 3022 1394 3022 966 
Q 3022 478 2636 193 
Q 2250 -91 1575 -91 
Q 1294 -91 989 -36 
Q 684 19 347 128 
L 347 722 
Q 666 556 975 473 
Q 1284 391 1588 391 
Q 1994 391 2212 530 
Q 2431 669 2431 922 
Q 2431 1156 2273 1281 
Q 2116 1406 1581 1522 
L 1381 1569 
Q 847 1681 609 1914 
Q 372 2147 372 2553 
Q 372 3047 722 3315 
Q 1072 3584 1716 3584 
Q 2034 3584 2315 3537 
Q 2597 3491 2834 3397 
z
" transform="scale(0.015625)"/>
      <path id="DejaVuSans-61" d="M 2194 1759 
Q 1497 1759 1228 1600 
Q 959 1441 959 1056 
Q 959 750 1161 570 
Q 1363 391 1709 391 
Q 2188 391 2477 730 
Q 2766 1069 2766 1631 
L 2766 1759 
L 2194 1759 
z
M 3341 1997 
L 3341 0 
L 2766 0 
L 2766 531 
Q 2569 213 2275 61 
Q 1981 -91 1556 -91 
Q 1019 -91 701 211 
Q 384 513 384 1019 
Q 384 1609 779 1909 
Q 1175 2209 1959 2209 
L 2766 2209 
L 2766 2266 
Q 2766 2663 2505 2880 
Q 2244 3097 1772 3097 
Q 1472 3097 1187 3025 
Q 903 2953 641 2809 
L 641 3341 
Q 956 3463 1253 3523 
Q 1550 3584 1831 3584 
Q 2591 3584 2966 3190 
Q 3341 2797 3341 1997 
z
" transform="scale(0.015625)"/>
      <path id="DejaVuSans-6d" d="M 3328 2828 
Q 3544 3216 3844 3400 
Q 4144 3584 4550 3584 
Q 5097 3584 5394 3201 
Q 5691 2819 5691 2113 
L 5691 0 
L 5113 0 
L 5113 2094 
Q 5113 2597 4934 2840 
Q 4756 3084 4391 3084 
Q 3944 3084 3684 2787 
Q 3425 2491 3425 1978 
L 3425 0 
L 2847 0 
L 2847 2094 
Q 2847 2600 2669 2842 
Q 2491 3084 2119 3084 
Q 1678 3084 1418 2786 
Q 1159 2488 1159 1978 
L 1159 0 
L 581 0 
L 581 3500 
L 1159 3500 
L 1159 2956 
Q 1356 3278 1631 3431 
Q 1906 3584 2284 3584 
Q 2666 3584 2933 3390 
Q 3200 3197 3328 2828 
z
" transform="scale(0.015625)"/>
      <path id="DejaVuSans-70" d="M 1159 525 
L 1159 -1331 
L 581 -1331 
L 581 3500 
L 1159 3500 
L 1159 2969 
Q 1341 3281 1617 3432 
Q 1894 3584 2278 3584 
Q 2916 3584 3314 3078 
Q 3713 2572 3713 1747 
Q 3713 922 3314 415 
Q 2916 -91 2278 -91 
Q 1894 -91 1617 61 
Q 1341 213 1159 525 
z
M 3116 1747 
Q 3116 2381 2855 2742 
Q 2594 3103 2138 3103 
Q 1681 3103 1420 2742 
Q 1159 2381 1159 1747 
Q 1159 1113 1420 752 
Q 1681 391 2138 391 
Q 2594 391 2855 752 
Q 3116 1113 3116 1747 
z
" transform="scale(0.015625)"/>
      <path id="DejaVuSans-6c" d="M 603 4863 
L 1178 4863 
L 1178 0 
L 603 0 
L 603 4863 
z
" transform="scale(0.015625)"/>
      <path id="DejaVuSans-65" d="M 3597 1894 
L 3597 1613 
L 953 1613 
Q 991 1019 1311 708 
Q 1631 397 2203 397 
Q 2534 397 2845 478 
Q 3156 559 3463 722 
L 3463 178 
Q 3153 47 2828 -22 
Q 2503 -91 2169 -91 
Q 1331 -91 842 396 
Q 353 884 353 1716 
Q 353 2575 817 3079 
Q 1281 3584 2069 3584 
Q 2775 3584 3186 3129 
Q 3597 2675 3597 1894 
z
M 3022 2063 
Q 3016 2534 2758 2815 
Q 2500 3097 2075 3097 
Q 1594 3097 1305 2825 
Q 1016 2553 972 2059 
L 3022 2063 
z
" transform="scale(0.015625)"/>
      <path id="DejaVuSans-31" d="M 794 531 
L 1825 531 
L 1825 4091 
L 703 3866 
L 703 4441 
L 1819 4666 
L 2450 4666 
L 2450 531 
L 3481 531 
L 3481 0 
L 794 0 
L 794 531 
z
" transform="scale(0.015625)"/>
      <path id="DejaVuSans-33" d="M 2597 2516 
Q 3050 2419 3304 2112 
Q 3559 1806 3559 1356 
Q 3559 666 3084 287 
Q 2609 -91 1734 -91 
Q 1441 -91 1130 -33 
Q 819 25 488 141 
L 488 750 
Q 750 597 1062 519 
Q 1375 441 1716 441 
Q 2309 441 2620 675 
Q 2931 909 2931 1356 
Q 2931 1769 2642 2001 
Q 2353 2234 1838 2234 
L 1294 2234 
L 1294 2753 
L 1863 2753 
Q 2328 2753 2575 2939 
Q 2822 3125 2822 3475 
Q 2822 3834 2567 4026 
Q 2313 4219 1838 4219 
Q 1578 4219 1281 4162 
Q 984 4106 628 3988 
L 628 4550 
Q 988 4650 1302 4700 
Q 1616 4750 1894 4750 
Q 2613 4750 3031 4423 
Q 3450 4097 3450 3541 
Q 3450 3153 3228 2886 
Q 3006 2619 2597 2516 
z
" transform="scale(0.015625)"/>
     </defs>
     <use xlink:href="#DejaVuSans-73"/>
     <use xlink:href="#DejaVuSans-61" x="52.099609"/>
     <use xlink:href="#DejaVuSans-6d" x="113.378906"/>
     <use xlink:href="#DejaVuSans-70" x="210.791016"/>
     <use xlink:href="#DejaVuSans-6c" x="274.267578"/>
     <use xlink:href="#DejaVuSans-65" x="302.050781"/>
     <use xlink:href="#DejaVuSans-73" x="363.574219"/>
     <use xlink:href="#DejaVuSans-20" x="415.673828"/>
     <use xlink:href="#DejaVuSans-3d" x="447.460938"/>
     <use xlink:href="#DejaVuSans-20" x="531.25"/>
     <use xlink:href="#DejaVuSans-31" x="563.037109"/>
     <use xlink:href="#DejaVuSans-30" x="626.660156"/>
     <use xlink:href="#DejaVuSans-33" x="690.283203"/>
    </g>
    <!-- value = [0, 103] -->
    <g transform="translate(63.533843 285.855538) scale(0.082649 -0.082649)">
     <defs>
      <path id="DejaVuSans-76" d="M 191 3500 
L 800 3500 
L 1894 563 
L 2988 3500 
L 3597 3500 
L 2284 0 
L 1503 0 
L 191 3500 
z
" transform="scale(0.015625)"/>
      <path id="DejaVuSans-75" d="M 544 1381 
L 544 3500 
L 1119 3500 
L 1119 1403 
Q 1119 906 1312 657 
Q 1506 409 1894 409 
Q 2359 409 2629 706 
Q 2900 1003 2900 1516 
L 2900 3500 
L 3475 3500 
L 3475 0 
L 2900 0 
L 2900 538 
Q 2691 219 2414 64 
Q 2138 -91 1772 -91 
Q 1169 -91 856 284 
Q 544 659 544 1381 
z
M 1991 3584 
L 1991 3584 
z
" transform="scale(0.015625)"/>
      <path id="DejaVuSans-5b" d="M 550 4863 
L 1875 4863 
L 1875 4416 
L 1125 4416 
L 1125 -397 
L 1875 -397 
L 1875 -844 
L 550 -844 
L 550 4863 
z
" transform="scale(0.015625)"/>
      <path id="DejaVuSans-2c" d="M 750 794 
L 1409 794 
L 1409 256 
L 897 -744 
L 494 -744 
L 750 256 
L 750 794 
z
" transform="scale(0.015625)"/>
      <path id="DejaVuSans-5d" d="M 1947 4863 
L 1947 -844 
L 622 -844 
L 622 -397 
L 1369 -397 
L 1369 4416 
L 622 4416 
L 622 4863 
L 1947 4863 
z
" transform="scale(0.015625)"/>
     </defs>
     <use xlink:href="#DejaVuSans-76"/>
     <use xlink:href="#DejaVuSans-61" x="59.179688"/>
     <use xlink:href="#DejaVuSans-6c" x="120.458984"/>
     <use xlink:href="#DejaVuSans-75" x="148.242188"/>
     <use xlink:href="#DejaVuSans-65" x="211.621094"/>
     <use xlink:href="#DejaVuSans-20" x="273.144531"/>
     <use xlink:href="#DejaVuSans-3d" x="304.931641"/>
     <use xlink:href="#DejaVuSans-20" x="388.720703"/>
     <use xlink:href="#DejaVuSans-5b" x="420.507812"/>
     <use xlink:href="#DejaVuSans-30" x="459.521484"/>
     <use xlink:href="#DejaVuSans-2c" x="523.144531"/>
     <use xlink:href="#DejaVuSans-20" x="554.931641"/>
     <use xlink:href="#DejaVuSans-31" x="586.71875"/>
     <use xlink:href="#DejaVuSans-30" x="650.341797"/>
     <use xlink:href="#DejaVuSans-33" x="713.964844"/>
     <use xlink:href="#DejaVuSans-5d" x="777.587891"/>
    </g>
   </g>
   <g id="patch_4">
    <path d="M 164.868291 254.5834 
Q 151.712442 232.526134 137.983884 209.508656 
" style="fill: none; stroke: #000000; stroke-linecap: round"/>
    <path d="M 164.594467 250.897361 
L 164.868291 254.5834 
L 161.755165 252.590836 
" style="fill: none; stroke: #000000; stroke-linecap: round"/>
   </g>
   <g id="text_2">
    <g id="patch_5">
     <path d="M 144.846436 290.880367 
L 208.433564 290.880367 
L 208.433564 257.759633 
L 144.846436 257.759633 
z
" style="fill: #ffffff; stroke: #000000; stroke-linejoin: miter"/>
    </g>
    <!-- gini = 0.0 -->
    <g transform="translate(156.439958 267.345678) scale(0.082649 -0.082649)">
     <use xlink:href="#DejaVuSans-67"/>
     <use xlink:href="#DejaVuSans-69" x="63.476562"/>
     <use xlink:href="#DejaVuSans-6e" x="91.259766"/>
     <use xlink:href="#DejaVuSans-69" x="154.638672"/>
     <use xlink:href="#DejaVuSans-20" x="182.421875"/>
     <use xlink:href="#DejaVuSans-3d" x="214.208984"/>
     <use xlink:href="#DejaVuSans-20" x="297.998047"/>
     <use xlink:href="#DejaVuSans-30" x="329.785156"/>
     <use xlink:href="#DejaVuSans-2e" x="393.408203"/>
     <use xlink:href="#DejaVuSans-30" x="425.195312"/>
    </g>
    <!-- samples = 1 -->
    <g transform="translate(150.743603 276.600608) scale(0.082649 -0.082649)">
     <use xlink:href="#DejaVuSans-73"/>
     <use xlink:href="#DejaVuSans-61" x="52.099609"/>
     <use xlink:href="#DejaVuSans-6d" x="113.378906"/>
     <use xlink:href="#DejaVuSans-70" x="210.791016"/>
     <use xlink:href="#DejaVuSans-6c" x="274.267578"/>
     <use xlink:href="#DejaVuSans-65" x="302.050781"/>
     <use xlink:href="#DejaVuSans-73" x="363.574219"/>
     <use xlink:href="#DejaVuSans-20" x="415.673828"/>
     <use xlink:href="#DejaVuSans-3d" x="447.460938"/>
     <use xlink:href="#DejaVuSans-20" x="531.25"/>
     <use xlink:href="#DejaVuSans-31" x="563.037109"/>
    </g>
    <!-- value = [1, 0] -->
    <g transform="translate(148.152414 285.855538) scale(0.082649 -0.082649)">
     <use xlink:href="#DejaVuSans-76"/>
     <use xlink:href="#DejaVuSans-61" x="59.179688"/>
     <use xlink:href="#DejaVuSans-6c" x="120.458984"/>
     <use xlink:href="#DejaVuSans-75" x="148.242188"/>
     <use xlink:href="#DejaVuSans-65" x="211.621094"/>
     <use xlink:href="#DejaVuSans-20" x="273.144531"/>
     <use xlink:href="#DejaVuSans-3d" x="304.931641"/>
     <use xlink:href="#DejaVuSans-20" x="388.720703"/>
     <use xlink:href="#DejaVuSans-5b" x="420.507812"/>
     <use xlink:href="#DejaVuSans-31" x="459.521484"/>
     <use xlink:href="#DejaVuSans-2c" x="523.144531"/>
     <use xlink:href="#DejaVuSans-20" x="554.931641"/>
     <use xlink:href="#DejaVuSans-30" x="586.71875"/>
     <use xlink:href="#DejaVuSans-5d" x="650.341797"/>
    </g>
   </g>
   <g id="patch_6">
    <path d="M 267.771709 254.5834 
Q 280.927558 232.526134 294.656116 209.508656 
" style="fill: none; stroke: #000000; stroke-linecap: round"/>
    <path d="M 270.884835 252.590836 
L 267.771709 254.5834 
L 268.045533 250.897361 
" style="fill: none; stroke: #000000; stroke-linecap: round"/>
   </g>
   <g id="text_3">
    <g id="patch_7">
     <path d="M 221.577151 290.880367 
L 290.422849 290.880367 
L 290.422849 257.759633 
L 221.577151 257.759633 
z
" style="fill: #ffffff; stroke: #000000; stroke-linejoin: miter"/>
    </g>
    <!-- gini = 0.0 -->
    <g transform="translate(235.799958 267.345678) scale(0.082649 -0.082649)">
     <use xlink:href="#DejaVuSans-67"/>
     <use xlink:href="#DejaVuSans-69" x="63.476562"/>
     <use xlink:href="#DejaVuSans-6e" x="91.259766"/>
     <use xlink:href="#DejaVuSans-69" x="154.638672"/>
     <use xlink:href="#DejaVuSans-20" x="182.421875"/>
     <use xlink:href="#DejaVuSans-3d" x="214.208984"/>
     <use xlink:href="#DejaVuSans-20" x="297.998047"/>
     <use xlink:href="#DejaVuSans-30" x="329.785156"/>
     <use xlink:href="#DejaVuSans-2e" x="393.408203"/>
     <use xlink:href="#DejaVuSans-30" x="425.195312"/>
    </g>
    <!-- samples = 92 -->
    <g transform="translate(227.474318 276.600608) scale(0.082649 -0.082649)">
     <defs>
      <path id="DejaVuSans-39" d="M 703 97 
L 703 672 
Q 941 559 1184 500 
Q 1428 441 1663 441 
Q 2288 441 2617 861 
Q 2947 1281 2994 2138 
Q 2813 1869 2534 1725 
Q 2256 1581 1919 1581 
Q 1219 1581 811 2004 
Q 403 2428 403 3163 
Q 403 3881 828 4315 
Q 1253 4750 1959 4750 
Q 2769 4750 3195 4129 
Q 3622 3509 3622 2328 
Q 3622 1225 3098 567 
Q 2575 -91 1691 -91 
Q 1453 -91 1209 -44 
Q 966 3 703 97 
z
M 1959 2075 
Q 2384 2075 2632 2365 
Q 2881 2656 2881 3163 
Q 2881 3666 2632 3958 
Q 2384 4250 1959 4250 
Q 1534 4250 1286 3958 
Q 1038 3666 1038 3163 
Q 1038 2656 1286 2365 
Q 1534 2075 1959 2075 
z
" transform="scale(0.015625)"/>
      <path id="DejaVuSans-32" d="M 1228 531 
L 3431 531 
L 3431 0 
L 469 0 
L 469 531 
Q 828 903 1448 1529 
Q 2069 2156 2228 2338 
Q 2531 2678 2651 2914 
Q 2772 3150 2772 3378 
Q 2772 3750 2511 3984 
Q 2250 4219 1831 4219 
Q 1534 4219 1204 4116 
Q 875 4013 500 3803 
L 500 4441 
Q 881 4594 1212 4672 
Q 1544 4750 1819 4750 
Q 2544 4750 2975 4387 
Q 3406 4025 3406 3419 
Q 3406 3131 3298 2873 
Q 3191 2616 2906 2266 
Q 2828 2175 2409 1742 
Q 1991 1309 1228 531 
z
" transform="scale(0.015625)"/>
     </defs>
     <use xlink:href="#DejaVuSans-73"/>
     <use xlink:href="#DejaVuSans-61" x="52.099609"/>
     <use xlink:href="#DejaVuSans-6d" x="113.378906"/>
     <use xlink:href="#DejaVuSans-70" x="210.791016"/>
     <use xlink:href="#DejaVuSans-6c" x="274.267578"/>
     <use xlink:href="#DejaVuSans-65" x="302.050781"/>
     <use xlink:href="#DejaVuSans-73" x="363.574219"/>
     <use xlink:href="#DejaVuSans-20" x="415.673828"/>
     <use xlink:href="#DejaVuSans-3d" x="447.460938"/>
     <use xlink:href="#DejaVuSans-20" x="531.25"/>
     <use xlink:href="#DejaVuSans-39" x="563.037109"/>
     <use xlink:href="#DejaVuSans-32" x="626.660156"/>
    </g>
    <!-- value = [92, 0] -->
    <g transform="translate(224.883129 285.855538) scale(0.082649 -0.082649)">
     <use xlink:href="#DejaVuSans-76"/>
     <use xlink:href="#DejaVuSans-61" x="59.179688"/>
     <use xlink:href="#DejaVuSans-6c" x="120.458984"/>
     <use xlink:href="#DejaVuSans-75" x="148.242188"/>
     <use xlink:href="#DejaVuSans-65" x="211.621094"/>
     <use xlink:href="#DejaVuSans-20" x="273.144531"/>
     <use xlink:href="#DejaVuSans-3d" x="304.931641"/>
     <use xlink:href="#DejaVuSans-20" x="388.720703"/>
     <use xlink:href="#DejaVuSans-5b" x="420.507812"/>
     <use xlink:href="#DejaVuSans-39" x="459.521484"/>
     <use xlink:href="#DejaVuSans-32" x="523.144531"/>
     <use xlink:href="#DejaVuSans-2c" x="586.767578"/>
     <use xlink:href="#DejaVuSans-20" x="618.554688"/>
     <use xlink:href="#DejaVuSans-30" x="650.341797"/>
     <use xlink:href="#DejaVuSans-5d" x="713.964844"/>
    </g>
   </g>
   <g id="patch_8">
    <path d="M 323.588291 254.5834 
Q 310.432442 232.526134 296.703884 209.508656 
" style="fill: none; stroke: #000000; stroke-linecap: round"/>
    <path d="M 323.314467 250.897361 
L 323.588291 254.5834 
L 320.475165 252.590836 
" style="fill: none; stroke: #000000; stroke-linecap: round"/>
   </g>
   <g id="text_4">
    <g id="patch_9">
     <path d="M 303.566436 290.880367 
L 367.153564 290.880367 
L 367.153564 257.759633 
L 303.566436 257.759633 
z
" style="fill: #ffffff; stroke: #000000; stroke-linejoin: miter"/>
    </g>
    <!-- gini = 0.0 -->
    <g transform="translate(315.159958 267.345678) scale(0.082649 -0.082649)">
     <use xlink:href="#DejaVuSans-67"/>
     <use xlink:href="#DejaVuSans-69" x="63.476562"/>
     <use xlink:href="#DejaVuSans-6e" x="91.259766"/>
     <use xlink:href="#DejaVuSans-69" x="154.638672"/>
     <use xlink:href="#DejaVuSans-20" x="182.421875"/>
     <use xlink:href="#DejaVuSans-3d" x="214.208984"/>
     <use xlink:href="#DejaVuSans-20" x="297.998047"/>
     <use xlink:href="#DejaVuSans-30" x="329.785156"/>
     <use xlink:href="#DejaVuSans-2e" x="393.408203"/>
     <use xlink:href="#DejaVuSans-30" x="425.195312"/>
    </g>
    <!-- samples = 1 -->
    <g transform="translate(309.463603 276.600608) scale(0.082649 -0.082649)">
     <use xlink:href="#DejaVuSans-73"/>
     <use xlink:href="#DejaVuSans-61" x="52.099609"/>
     <use xlink:href="#DejaVuSans-6d" x="113.378906"/>
     <use xlink:href="#DejaVuSans-70" x="210.791016"/>
     <use xlink:href="#DejaVuSans-6c" x="274.267578"/>
     <use xlink:href="#DejaVuSans-65" x="302.050781"/>
     <use xlink:href="#DejaVuSans-73" x="363.574219"/>
     <use xlink:href="#DejaVuSans-20" x="415.673828"/>
     <use xlink:href="#DejaVuSans-3d" x="447.460938"/>
     <use xlink:href="#DejaVuSans-20" x="531.25"/>
     <use xlink:href="#DejaVuSans-31" x="563.037109"/>
    </g>
    <!-- value = [0, 1] -->
    <g transform="translate(306.872414 285.855538) scale(0.082649 -0.082649)">
     <use xlink:href="#DejaVuSans-76"/>
     <use xlink:href="#DejaVuSans-61" x="59.179688"/>
     <use xlink:href="#DejaVuSans-6c" x="120.458984"/>
     <use xlink:href="#DejaVuSans-75" x="148.242188"/>
     <use xlink:href="#DejaVuSans-65" x="211.621094"/>
     <use xlink:href="#DejaVuSans-20" x="273.144531"/>
     <use xlink:href="#DejaVuSans-3d" x="304.931641"/>
     <use xlink:href="#DejaVuSans-20" x="388.720703"/>
     <use xlink:href="#DejaVuSans-5b" x="420.507812"/>
     <use xlink:href="#DejaVuSans-30" x="459.521484"/>
     <use xlink:href="#DejaVuSans-2c" x="523.144531"/>
     <use xlink:href="#DejaVuSans-20" x="554.931641"/>
     <use xlink:href="#DejaVuSans-31" x="586.71875"/>
     <use xlink:href="#DejaVuSans-5d" x="650.341797"/>
    </g>
   </g>
   <g id="patch_10">
    <path d="M 151.49144 183.428401 
Q 163.266793 163.685692 175.614854 142.982773 
" style="fill: none; stroke: #000000; stroke-linecap: round"/>
    <path d="M 154.604565 181.435837 
L 151.49144 183.428401 
L 151.765264 179.742362 
" style="fill: none; stroke: #000000; stroke-linecap: round"/>
   </g>
   <g id="text_5">
    <g id="patch_11">
     <path d="M 99.907865 228.979832 
L 174.012135 228.979832 
L 174.012135 186.604168 
L 99.907865 186.604168 
z
" style="fill: #ffffff; stroke: #000000; stroke-linejoin: miter"/>
    </g>
    <!-- X[1175] &lt;= 0.5 -->
    <g transform="translate(104.263104 196.190213) scale(0.082649 -0.082649)">
     <defs>
      <path id="DejaVuSans-58" d="M 403 4666 
L 1081 4666 
L 2241 2931 
L 3406 4666 
L 4084 4666 
L 2584 2425 
L 4184 0 
L 3506 0 
L 2194 1984 
L 872 0 
L 191 0 
L 1856 2491 
L 403 4666 
z
" transform="scale(0.015625)"/>
      <path id="DejaVuSans-37" d="M 525 4666 
L 3525 4666 
L 3525 4397 
L 1831 0 
L 1172 0 
L 2766 4134 
L 525 4134 
L 525 4666 
z
" transform="scale(0.015625)"/>
      <path id="DejaVuSans-35" d="M 691 4666 
L 3169 4666 
L 3169 4134 
L 1269 4134 
L 1269 2991 
Q 1406 3038 1543 3061 
Q 1681 3084 1819 3084 
Q 2600 3084 3056 2656 
Q 3513 2228 3513 1497 
Q 3513 744 3044 326 
Q 2575 -91 1722 -91 
Q 1428 -91 1123 -41 
Q 819 9 494 109 
L 494 744 
Q 775 591 1075 516 
Q 1375 441 1709 441 
Q 2250 441 2565 725 
Q 2881 1009 2881 1497 
Q 2881 1984 2565 2268 
Q 2250 2553 1709 2553 
Q 1456 2553 1204 2497 
Q 953 2441 691 2322 
L 691 4666 
z
" transform="scale(0.015625)"/>
      <path id="DejaVuSans-3c" d="M 4684 3150 
L 1459 2003 
L 4684 863 
L 4684 294 
L 678 1747 
L 678 2266 
L 4684 3719 
L 4684 3150 
z
" transform="scale(0.015625)"/>
     </defs>
     <use xlink:href="#DejaVuSans-58"/>
     <use xlink:href="#DejaVuSans-5b" x="68.505859"/>
     <use xlink:href="#DejaVuSans-31" x="107.519531"/>
     <use xlink:href="#DejaVuSans-31" x="171.142578"/>
     <use xlink:href="#DejaVuSans-37" x="234.765625"/>
     <use xlink:href="#DejaVuSans-35" x="298.388672"/>
     <use xlink:href="#DejaVuSans-5d" x="362.011719"/>
     <use xlink:href="#DejaVuSans-20" x="401.025391"/>
     <use xlink:href="#DejaVuSans-3c" x="432.8125"/>
     <use xlink:href="#DejaVuSans-3d" x="516.601562"/>
     <use xlink:href="#DejaVuSans-20" x="600.390625"/>
     <use xlink:href="#DejaVuSans-30" x="632.177734"/>
     <use xlink:href="#DejaVuSans-2e" x="695.800781"/>
     <use xlink:href="#DejaVuSans-35" x="727.587891"/>
    </g>
    <!-- gini = 0.019 -->
    <g transform="translate(111.501387 205.445143) scale(0.082649 -0.082649)">
     <use xlink:href="#DejaVuSans-67"/>
     <use xlink:href="#DejaVuSans-69" x="63.476562"/>
     <use xlink:href="#DejaVuSans-6e" x="91.259766"/>
     <use xlink:href="#DejaVuSans-69" x="154.638672"/>
     <use xlink:href="#DejaVuSans-20" x="182.421875"/>
     <use xlink:href="#DejaVuSans-3d" x="214.208984"/>
     <use xlink:href="#DejaVuSans-20" x="297.998047"/>
     <use xlink:href="#DejaVuSans-30" x="329.785156"/>
     <use xlink:href="#DejaVuSans-2e" x="393.408203"/>
     <use xlink:href="#DejaVuSans-30" x="425.195312"/>
     <use xlink:href="#DejaVuSans-31" x="488.818359"/>
     <use xlink:href="#DejaVuSans-39" x="552.441406"/>
    </g>
    <!-- samples = 104 -->
    <g transform="translate(105.805032 214.700073) scale(0.082649 -0.082649)">
     <defs>
      <path id="DejaVuSans-34" d="M 2419 4116 
L 825 1625 
L 2419 1625 
L 2419 4116 
z
M 2253 4666 
L 3047 4666 
L 3047 1625 
L 3713 1625 
L 3713 1100 
L 3047 1100 
L 3047 0 
L 2419 0 
L 2419 1100 
L 313 1100 
L 313 1709 
L 2253 4666 
z
" transform="scale(0.015625)"/>
     </defs>
     <use xlink:href="#DejaVuSans-73"/>
     <use xlink:href="#DejaVuSans-61" x="52.099609"/>
     <use xlink:href="#DejaVuSans-6d" x="113.378906"/>
     <use xlink:href="#DejaVuSans-70" x="210.791016"/>
     <use xlink:href="#DejaVuSans-6c" x="274.267578"/>
     <use xlink:href="#DejaVuSans-65" x="302.050781"/>
     <use xlink:href="#DejaVuSans-73" x="363.574219"/>
     <use xlink:href="#DejaVuSans-20" x="415.673828"/>
     <use xlink:href="#DejaVuSans-3d" x="447.460938"/>
     <use xlink:href="#DejaVuSans-20" x="531.25"/>
     <use xlink:href="#DejaVuSans-31" x="563.037109"/>
     <use xlink:href="#DejaVuSans-30" x="626.660156"/>
     <use xlink:href="#DejaVuSans-34" x="690.283203"/>
    </g>
    <!-- value = [1, 103] -->
    <g transform="translate(103.213843 223.955004) scale(0.082649 -0.082649)">
     <use xlink:href="#DejaVuSans-76"/>
     <use xlink:href="#DejaVuSans-61" x="59.179688"/>
     <use xlink:href="#DejaVuSans-6c" x="120.458984"/>
     <use xlink:href="#DejaVuSans-75" x="148.242188"/>
     <use xlink:href="#DejaVuSans-65" x="211.621094"/>
     <use xlink:href="#DejaVuSans-20" x="273.144531"/>
     <use xlink:href="#DejaVuSans-3d" x="304.931641"/>
     <use xlink:href="#DejaVuSans-20" x="388.720703"/>
     <use xlink:href="#DejaVuSans-5b" x="420.507812"/>
     <use xlink:href="#DejaVuSans-31" x="459.521484"/>
     <use xlink:href="#DejaVuSans-2c" x="523.144531"/>
     <use xlink:href="#DejaVuSans-20" x="554.931641"/>
     <use xlink:href="#DejaVuSans-31" x="586.71875"/>
     <use xlink:href="#DejaVuSans-30" x="650.341797"/>
     <use xlink:href="#DejaVuSans-33" x="713.964844"/>
     <use xlink:href="#DejaVuSans-5d" x="777.587891"/>
    </g>
   </g>
   <g id="patch_12">
    <path d="M 204.548291 188.0554 
Q 191.392442 165.998134 177.663884 142.980656 
" style="fill: none; stroke: #000000; stroke-linecap: round"/>
    <path d="M 204.274467 184.369361 
L 204.548291 188.0554 
L 201.435165 186.062836 
" style="fill: none; stroke: #000000; stroke-linecap: round"/>
   </g>
   <g id="text_6">
    <g id="patch_13">
     <path d="M 184.526436 224.352367 
L 248.113564 224.352367 
L 248.113564 191.231633 
L 184.526436 191.231633 
z
" style="fill: #ffffff; stroke: #000000; stroke-linejoin: miter"/>
    </g>
    <!-- gini = 0.0 -->
    <g transform="translate(196.119958 200.817678) scale(0.082649 -0.082649)">
     <use xlink:href="#DejaVuSans-67"/>
     <use xlink:href="#DejaVuSans-69" x="63.476562"/>
     <use xlink:href="#DejaVuSans-6e" x="91.259766"/>
     <use xlink:href="#DejaVuSans-69" x="154.638672"/>
     <use xlink:href="#DejaVuSans-20" x="182.421875"/>
     <use xlink:href="#DejaVuSans-3d" x="214.208984"/>
     <use xlink:href="#DejaVuSans-20" x="297.998047"/>
     <use xlink:href="#DejaVuSans-30" x="329.785156"/>
     <use xlink:href="#DejaVuSans-2e" x="393.408203"/>
     <use xlink:href="#DejaVuSans-30" x="425.195312"/>
    </g>
    <!-- samples = 1 -->
    <g transform="translate(190.423603 210.072608) scale(0.082649 -0.082649)">
     <use xlink:href="#DejaVuSans-73"/>
     <use xlink:href="#DejaVuSans-61" x="52.099609"/>
     <use xlink:href="#DejaVuSans-6d" x="113.378906"/>
     <use xlink:href="#DejaVuSans-70" x="210.791016"/>
     <use xlink:href="#DejaVuSans-6c" x="274.267578"/>
     <use xlink:href="#DejaVuSans-65" x="302.050781"/>
     <use xlink:href="#DejaVuSans-73" x="363.574219"/>
     <use xlink:href="#DejaVuSans-20" x="415.673828"/>
     <use xlink:href="#DejaVuSans-3d" x="447.460938"/>
     <use xlink:href="#DejaVuSans-20" x="531.25"/>
     <use xlink:href="#DejaVuSans-31" x="563.037109"/>
    </g>
    <!-- value = [1, 0] -->
    <g transform="translate(187.832414 219.327538) scale(0.082649 -0.082649)">
     <use xlink:href="#DejaVuSans-76"/>
     <use xlink:href="#DejaVuSans-61" x="59.179688"/>
     <use xlink:href="#DejaVuSans-6c" x="120.458984"/>
     <use xlink:href="#DejaVuSans-75" x="148.242188"/>
     <use xlink:href="#DejaVuSans-65" x="211.621094"/>
     <use xlink:href="#DejaVuSans-20" x="273.144531"/>
     <use xlink:href="#DejaVuSans-3d" x="304.931641"/>
     <use xlink:href="#DejaVuSans-20" x="388.720703"/>
     <use xlink:href="#DejaVuSans-5b" x="420.507812"/>
     <use xlink:href="#DejaVuSans-31" x="459.521484"/>
     <use xlink:href="#DejaVuSans-2c" x="523.144531"/>
     <use xlink:href="#DejaVuSans-20" x="554.931641"/>
     <use xlink:href="#DejaVuSans-30" x="586.71875"/>
     <use xlink:href="#DejaVuSans-5d" x="650.341797"/>
    </g>
   </g>
   <g id="patch_14">
    <path d="M 310.21144 183.428401 
Q 321.986793 163.685692 334.334854 142.982773 
" style="fill: none; stroke: #000000; stroke-linecap: round"/>
    <path d="M 313.324565 181.435837 
L 310.21144 183.428401 
L 310.485264 179.742362 
" style="fill: none; stroke: #000000; stroke-linecap: round"/>
   </g>
   <g id="text_7">
    <g id="patch_15">
     <path d="M 259.677126 228.979832 
L 331.682874 228.979832 
L 331.682874 186.604168 
L 259.677126 186.604168 
z
" style="fill: #ffffff; stroke: #000000; stroke-linejoin: miter"/>
    </g>
    <!-- X[1773] &lt;= 0.5 -->
    <g transform="translate(262.983104 196.190213) scale(0.082649 -0.082649)">
     <use xlink:href="#DejaVuSans-58"/>
     <use xlink:href="#DejaVuSans-5b" x="68.505859"/>
     <use xlink:href="#DejaVuSans-31" x="107.519531"/>
     <use xlink:href="#DejaVuSans-37" x="171.142578"/>
     <use xlink:href="#DejaVuSans-37" x="234.765625"/>
     <use xlink:href="#DejaVuSans-33" x="298.388672"/>
     <use xlink:href="#DejaVuSans-5d" x="362.011719"/>
     <use xlink:href="#DejaVuSans-20" x="401.025391"/>
     <use xlink:href="#DejaVuSans-3c" x="432.8125"/>
     <use xlink:href="#DejaVuSans-3d" x="516.601562"/>
     <use xlink:href="#DejaVuSans-20" x="600.390625"/>
     <use xlink:href="#DejaVuSans-30" x="632.177734"/>
     <use xlink:href="#DejaVuSans-2e" x="695.800781"/>
     <use xlink:href="#DejaVuSans-35" x="727.587891"/>
    </g>
    <!-- gini = 0.021 -->
    <g transform="translate(270.221387 205.445143) scale(0.082649 -0.082649)">
     <use xlink:href="#DejaVuSans-67"/>
     <use xlink:href="#DejaVuSans-69" x="63.476562"/>
     <use xlink:href="#DejaVuSans-6e" x="91.259766"/>
     <use xlink:href="#DejaVuSans-69" x="154.638672"/>
     <use xlink:href="#DejaVuSans-20" x="182.421875"/>
     <use xlink:href="#DejaVuSans-3d" x="214.208984"/>
     <use xlink:href="#DejaVuSans-20" x="297.998047"/>
     <use xlink:href="#DejaVuSans-30" x="329.785156"/>
     <use xlink:href="#DejaVuSans-2e" x="393.408203"/>
     <use xlink:href="#DejaVuSans-30" x="425.195312"/>
     <use xlink:href="#DejaVuSans-32" x="488.818359"/>
     <use xlink:href="#DejaVuSans-31" x="552.441406"/>
    </g>
    <!-- samples = 93 -->
    <g transform="translate(267.154318 214.700073) scale(0.082649 -0.082649)">
     <use xlink:href="#DejaVuSans-73"/>
     <use xlink:href="#DejaVuSans-61" x="52.099609"/>
     <use xlink:href="#DejaVuSans-6d" x="113.378906"/>
     <use xlink:href="#DejaVuSans-70" x="210.791016"/>
     <use xlink:href="#DejaVuSans-6c" x="274.267578"/>
     <use xlink:href="#DejaVuSans-65" x="302.050781"/>
     <use xlink:href="#DejaVuSans-73" x="363.574219"/>
     <use xlink:href="#DejaVuSans-20" x="415.673828"/>
     <use xlink:href="#DejaVuSans-3d" x="447.460938"/>
     <use xlink:href="#DejaVuSans-20" x="531.25"/>
     <use xlink:href="#DejaVuSans-39" x="563.037109"/>
     <use xlink:href="#DejaVuSans-33" x="626.660156"/>
    </g>
    <!-- value = [92, 1] -->
    <g transform="translate(264.563129 223.955004) scale(0.082649 -0.082649)">
     <use xlink:href="#DejaVuSans-76"/>
     <use xlink:href="#DejaVuSans-61" x="59.179688"/>
     <use xlink:href="#DejaVuSans-6c" x="120.458984"/>
     <use xlink:href="#DejaVuSans-75" x="148.242188"/>
     <use xlink:href="#DejaVuSans-65" x="211.621094"/>
     <use xlink:href="#DejaVuSans-20" x="273.144531"/>
     <use xlink:href="#DejaVuSans-3d" x="304.931641"/>
     <use xlink:href="#DejaVuSans-20" x="388.720703"/>
     <use xlink:href="#DejaVuSans-5b" x="420.507812"/>
     <use xlink:href="#DejaVuSans-39" x="459.521484"/>
     <use xlink:href="#DejaVuSans-32" x="523.144531"/>
     <use xlink:href="#DejaVuSans-2c" x="586.767578"/>
     <use xlink:href="#DejaVuSans-20" x="618.554688"/>
     <use xlink:href="#DejaVuSans-31" x="650.341797"/>
     <use xlink:href="#DejaVuSans-5d" x="713.964844"/>
    </g>
   </g>
   <g id="patch_16">
    <path d="M 363.268291 188.0554 
Q 350.112442 165.998134 336.383884 142.980656 
" style="fill: none; stroke: #000000; stroke-linecap: round"/>
    <path d="M 362.994467 184.369361 
L 363.268291 188.0554 
L 360.155165 186.062836 
" style="fill: none; stroke: #000000; stroke-linecap: round"/>
   </g>
   <g id="text_8">
    <g id="patch_17">
     <path d="M 343.246436 224.352367 
L 406.833564 224.352367 
L 406.833564 191.231633 
L 343.246436 191.231633 
z
" style="fill: #ffffff; stroke: #000000; stroke-linejoin: miter"/>
    </g>
    <!-- gini = 0.0 -->
    <g transform="translate(354.839958 200.817678) scale(0.082649 -0.082649)">
     <use xlink:href="#DejaVuSans-67"/>
     <use xlink:href="#DejaVuSans-69" x="63.476562"/>
     <use xlink:href="#DejaVuSans-6e" x="91.259766"/>
     <use xlink:href="#DejaVuSans-69" x="154.638672"/>
     <use xlink:href="#DejaVuSans-20" x="182.421875"/>
     <use xlink:href="#DejaVuSans-3d" x="214.208984"/>
     <use xlink:href="#DejaVuSans-20" x="297.998047"/>
     <use xlink:href="#DejaVuSans-30" x="329.785156"/>
     <use xlink:href="#DejaVuSans-2e" x="393.408203"/>
     <use xlink:href="#DejaVuSans-30" x="425.195312"/>
    </g>
    <!-- samples = 2 -->
    <g transform="translate(349.143603 210.072608) scale(0.082649 -0.082649)">
     <use xlink:href="#DejaVuSans-73"/>
     <use xlink:href="#DejaVuSans-61" x="52.099609"/>
     <use xlink:href="#DejaVuSans-6d" x="113.378906"/>
     <use xlink:href="#DejaVuSans-70" x="210.791016"/>
     <use xlink:href="#DejaVuSans-6c" x="274.267578"/>
     <use xlink:href="#DejaVuSans-65" x="302.050781"/>
     <use xlink:href="#DejaVuSans-73" x="363.574219"/>
     <use xlink:href="#DejaVuSans-20" x="415.673828"/>
     <use xlink:href="#DejaVuSans-3d" x="447.460938"/>
     <use xlink:href="#DejaVuSans-20" x="531.25"/>
     <use xlink:href="#DejaVuSans-32" x="563.037109"/>
    </g>
    <!-- value = [0, 2] -->
    <g transform="translate(346.552414 219.327538) scale(0.082649 -0.082649)">
     <use xlink:href="#DejaVuSans-76"/>
     <use xlink:href="#DejaVuSans-61" x="59.179688"/>
     <use xlink:href="#DejaVuSans-6c" x="120.458984"/>
     <use xlink:href="#DejaVuSans-75" x="148.242188"/>
     <use xlink:href="#DejaVuSans-65" x="211.621094"/>
     <use xlink:href="#DejaVuSans-20" x="273.144531"/>
     <use xlink:href="#DejaVuSans-3d" x="304.931641"/>
     <use xlink:href="#DejaVuSans-20" x="388.720703"/>
     <use xlink:href="#DejaVuSans-5b" x="420.507812"/>
     <use xlink:href="#DejaVuSans-30" x="459.521484"/>
     <use xlink:href="#DejaVuSans-2c" x="523.144531"/>
     <use xlink:href="#DejaVuSans-20" x="554.931641"/>
     <use xlink:href="#DejaVuSans-32" x="586.71875"/>
     <use xlink:href="#DejaVuSans-5d" x="650.341797"/>
    </g>
   </g>
   <g id="patch_18">
    <path d="M 204.900784 117.572803 
Q 229.256161 97.155532 254.468338 76.020002 
" style="fill: none; stroke: #000000; stroke-linecap: round"/>
    <path d="M 208.49623 116.715698 
L 204.900784 117.572803 
L 206.372368 114.182183 
" style="fill: none; stroke: #000000; stroke-linecap: round"/>
   </g>
   <g id="text_9">
    <g id="patch_19">
     <path d="M 139.587865 162.451832 
L 213.692135 162.451832 
L 213.692135 120.076168 
L 139.587865 120.076168 
z
" style="fill: #ffffff; stroke: #000000; stroke-linejoin: miter"/>
    </g>
    <!-- X[1266] &lt;= 0.5 -->
    <g transform="translate(143.943104 129.662213) scale(0.082649 -0.082649)">
     <defs>
      <path id="DejaVuSans-36" d="M 2113 2584 
Q 1688 2584 1439 2293 
Q 1191 2003 1191 1497 
Q 1191 994 1439 701 
Q 1688 409 2113 409 
Q 2538 409 2786 701 
Q 3034 994 3034 1497 
Q 3034 2003 2786 2293 
Q 2538 2584 2113 2584 
z
M 3366 4563 
L 3366 3988 
Q 3128 4100 2886 4159 
Q 2644 4219 2406 4219 
Q 1781 4219 1451 3797 
Q 1122 3375 1075 2522 
Q 1259 2794 1537 2939 
Q 1816 3084 2150 3084 
Q 2853 3084 3261 2657 
Q 3669 2231 3669 1497 
Q 3669 778 3244 343 
Q 2819 -91 2113 -91 
Q 1303 -91 875 529 
Q 447 1150 447 2328 
Q 447 3434 972 4092 
Q 1497 4750 2381 4750 
Q 2619 4750 2861 4703 
Q 3103 4656 3366 4563 
z
" transform="scale(0.015625)"/>
     </defs>
     <use xlink:href="#DejaVuSans-58"/>
     <use xlink:href="#DejaVuSans-5b" x="68.505859"/>
     <use xlink:href="#DejaVuSans-31" x="107.519531"/>
     <use xlink:href="#DejaVuSans-32" x="171.142578"/>
     <use xlink:href="#DejaVuSans-36" x="234.765625"/>
     <use xlink:href="#DejaVuSans-36" x="298.388672"/>
     <use xlink:href="#DejaVuSans-5d" x="362.011719"/>
     <use xlink:href="#DejaVuSans-20" x="401.025391"/>
     <use xlink:href="#DejaVuSans-3c" x="432.8125"/>
     <use xlink:href="#DejaVuSans-3d" x="516.601562"/>
     <use xlink:href="#DejaVuSans-20" x="600.390625"/>
     <use xlink:href="#DejaVuSans-30" x="632.177734"/>
     <use xlink:href="#DejaVuSans-2e" x="695.800781"/>
     <use xlink:href="#DejaVuSans-35" x="727.587891"/>
    </g>
    <!-- gini = 0.037 -->
    <g transform="translate(151.181387 138.917143) scale(0.082649 -0.082649)">
     <use xlink:href="#DejaVuSans-67"/>
     <use xlink:href="#DejaVuSans-69" x="63.476562"/>
     <use xlink:href="#DejaVuSans-6e" x="91.259766"/>
     <use xlink:href="#DejaVuSans-69" x="154.638672"/>
     <use xlink:href="#DejaVuSans-20" x="182.421875"/>
     <use xlink:href="#DejaVuSans-3d" x="214.208984"/>
     <use xlink:href="#DejaVuSans-20" x="297.998047"/>
     <use xlink:href="#DejaVuSans-30" x="329.785156"/>
     <use xlink:href="#DejaVuSans-2e" x="393.408203"/>
     <use xlink:href="#DejaVuSans-30" x="425.195312"/>
     <use xlink:href="#DejaVuSans-33" x="488.818359"/>
     <use xlink:href="#DejaVuSans-37" x="552.441406"/>
    </g>
    <!-- samples = 105 -->
    <g transform="translate(145.485032 148.172073) scale(0.082649 -0.082649)">
     <use xlink:href="#DejaVuSans-73"/>
     <use xlink:href="#DejaVuSans-61" x="52.099609"/>
     <use xlink:href="#DejaVuSans-6d" x="113.378906"/>
     <use xlink:href="#DejaVuSans-70" x="210.791016"/>
     <use xlink:href="#DejaVuSans-6c" x="274.267578"/>
     <use xlink:href="#DejaVuSans-65" x="302.050781"/>
     <use xlink:href="#DejaVuSans-73" x="363.574219"/>
     <use xlink:href="#DejaVuSans-20" x="415.673828"/>
     <use xlink:href="#DejaVuSans-3d" x="447.460938"/>
     <use xlink:href="#DejaVuSans-20" x="531.25"/>
     <use xlink:href="#DejaVuSans-31" x="563.037109"/>
     <use xlink:href="#DejaVuSans-30" x="626.660156"/>
     <use xlink:href="#DejaVuSans-35" x="690.283203"/>
    </g>
    <!-- value = [2, 103] -->
    <g transform="translate(142.893843 157.427004) scale(0.082649 -0.082649)">
     <use xlink:href="#DejaVuSans-76"/>
     <use xlink:href="#DejaVuSans-61" x="59.179688"/>
     <use xlink:href="#DejaVuSans-6c" x="120.458984"/>
     <use xlink:href="#DejaVuSans-75" x="148.242188"/>
     <use xlink:href="#DejaVuSans-65" x="211.621094"/>
     <use xlink:href="#DejaVuSans-20" x="273.144531"/>
     <use xlink:href="#DejaVuSans-3d" x="304.931641"/>
     <use xlink:href="#DejaVuSans-20" x="388.720703"/>
     <use xlink:href="#DejaVuSans-5b" x="420.507812"/>
     <use xlink:href="#DejaVuSans-32" x="459.521484"/>
     <use xlink:href="#DejaVuSans-2c" x="523.144531"/>
     <use xlink:href="#DejaVuSans-20" x="554.931641"/>
     <use xlink:href="#DejaVuSans-31" x="586.71875"/>
     <use xlink:href="#DejaVuSans-30" x="650.341797"/>
     <use xlink:href="#DejaVuSans-33" x="713.964844"/>
     <use xlink:href="#DejaVuSans-5d" x="777.587891"/>
    </g>
   </g>
   <g id="patch_20">
    <path d="M 307.099216 117.572803 
Q 282.743839 97.155532 257.531662 76.020002 
" style="fill: none; stroke: #000000; stroke-linecap: round"/>
    <path d="M 305.627632 114.182183 
L 307.099216 117.572803 
L 303.50377 116.715698 
" style="fill: none; stroke: #000000; stroke-linecap: round"/>
   </g>
   <g id="text_10">
    <g id="patch_21">
     <path d="M 299.357126 162.451832 
L 371.362874 162.451832 
L 371.362874 120.076168 
L 299.357126 120.076168 
z
" style="fill: #ffffff; stroke: #000000; stroke-linejoin: miter"/>
    </g>
    <!-- X[1775] &lt;= 0.5 -->
    <g transform="translate(302.663104 129.662213) scale(0.082649 -0.082649)">
     <use xlink:href="#DejaVuSans-58"/>
     <use xlink:href="#DejaVuSans-5b" x="68.505859"/>
     <use xlink:href="#DejaVuSans-31" x="107.519531"/>
     <use xlink:href="#DejaVuSans-37" x="171.142578"/>
     <use xlink:href="#DejaVuSans-37" x="234.765625"/>
     <use xlink:href="#DejaVuSans-35" x="298.388672"/>
     <use xlink:href="#DejaVuSans-5d" x="362.011719"/>
     <use xlink:href="#DejaVuSans-20" x="401.025391"/>
     <use xlink:href="#DejaVuSans-3c" x="432.8125"/>
     <use xlink:href="#DejaVuSans-3d" x="516.601562"/>
     <use xlink:href="#DejaVuSans-20" x="600.390625"/>
     <use xlink:href="#DejaVuSans-30" x="632.177734"/>
     <use xlink:href="#DejaVuSans-2e" x="695.800781"/>
     <use xlink:href="#DejaVuSans-35" x="727.587891"/>
    </g>
    <!-- gini = 0.061 -->
    <g transform="translate(309.901387 138.917143) scale(0.082649 -0.082649)">
     <use xlink:href="#DejaVuSans-67"/>
     <use xlink:href="#DejaVuSans-69" x="63.476562"/>
     <use xlink:href="#DejaVuSans-6e" x="91.259766"/>
     <use xlink:href="#DejaVuSans-69" x="154.638672"/>
     <use xlink:href="#DejaVuSans-20" x="182.421875"/>
     <use xlink:href="#DejaVuSans-3d" x="214.208984"/>
     <use xlink:href="#DejaVuSans-20" x="297.998047"/>
     <use xlink:href="#DejaVuSans-30" x="329.785156"/>
     <use xlink:href="#DejaVuSans-2e" x="393.408203"/>
     <use xlink:href="#DejaVuSans-30" x="425.195312"/>
     <use xlink:href="#DejaVuSans-36" x="488.818359"/>
     <use xlink:href="#DejaVuSans-31" x="552.441406"/>
    </g>
    <!-- samples = 95 -->
    <g transform="translate(306.834318 148.172073) scale(0.082649 -0.082649)">
     <use xlink:href="#DejaVuSans-73"/>
     <use xlink:href="#DejaVuSans-61" x="52.099609"/>
     <use xlink:href="#DejaVuSans-6d" x="113.378906"/>
     <use xlink:href="#DejaVuSans-70" x="210.791016"/>
     <use xlink:href="#DejaVuSans-6c" x="274.267578"/>
     <use xlink:href="#DejaVuSans-65" x="302.050781"/>
     <use xlink:href="#DejaVuSans-73" x="363.574219"/>
     <use xlink:href="#DejaVuSans-20" x="415.673828"/>
     <use xlink:href="#DejaVuSans-3d" x="447.460938"/>
     <use xlink:href="#DejaVuSans-20" x="531.25"/>
     <use xlink:href="#DejaVuSans-39" x="563.037109"/>
     <use xlink:href="#DejaVuSans-35" x="626.660156"/>
    </g>
    <!-- value = [92, 3] -->
    <g transform="translate(304.243129 157.427004) scale(0.082649 -0.082649)">
     <use xlink:href="#DejaVuSans-76"/>
     <use xlink:href="#DejaVuSans-61" x="59.179688"/>
     <use xlink:href="#DejaVuSans-6c" x="120.458984"/>
     <use xlink:href="#DejaVuSans-75" x="148.242188"/>
     <use xlink:href="#DejaVuSans-65" x="211.621094"/>
     <use xlink:href="#DejaVuSans-20" x="273.144531"/>
     <use xlink:href="#DejaVuSans-3d" x="304.931641"/>
     <use xlink:href="#DejaVuSans-20" x="388.720703"/>
     <use xlink:href="#DejaVuSans-5b" x="420.507812"/>
     <use xlink:href="#DejaVuSans-39" x="459.521484"/>
     <use xlink:href="#DejaVuSans-32" x="523.144531"/>
     <use xlink:href="#DejaVuSans-2c" x="586.767578"/>
     <use xlink:href="#DejaVuSans-20" x="618.554688"/>
     <use xlink:href="#DejaVuSans-33" x="650.341797"/>
     <use xlink:href="#DejaVuSans-5d" x="713.964844"/>
    </g>
   </g>
   <g id="patch_22">
    <path d="M 256 74.736 
Q 256 74.736 256 74.736 
" style="fill: none; stroke: #000000; stroke-linecap: round"/>
   </g>
   <g id="text_11">
    <g id="patch_23">
     <path d="M 216.318579 95.923832 
L 295.681421 95.923832 
L 295.681421 53.548168 
L 216.318579 53.548168 
z
" style="fill: #ffffff; stroke: #000000; stroke-linejoin: miter"/>
    </g>
    <!-- X[3097] &lt;= 0.5 -->
    <g transform="translate(223.303104 63.134213) scale(0.082649 -0.082649)">
     <use xlink:href="#DejaVuSans-58"/>
     <use xlink:href="#DejaVuSans-5b" x="68.505859"/>
     <use xlink:href="#DejaVuSans-33" x="107.519531"/>
     <use xlink:href="#DejaVuSans-30" x="171.142578"/>
     <use xlink:href="#DejaVuSans-39" x="234.765625"/>
     <use xlink:href="#DejaVuSans-37" x="298.388672"/>
     <use xlink:href="#DejaVuSans-5d" x="362.011719"/>
     <use xlink:href="#DejaVuSans-20" x="401.025391"/>
     <use xlink:href="#DejaVuSans-3c" x="432.8125"/>
     <use xlink:href="#DejaVuSans-3d" x="516.601562"/>
     <use xlink:href="#DejaVuSans-20" x="600.390625"/>
     <use xlink:href="#DejaVuSans-30" x="632.177734"/>
     <use xlink:href="#DejaVuSans-2e" x="695.800781"/>
     <use xlink:href="#DejaVuSans-35" x="727.587891"/>
    </g>
    <!-- gini = 0.498 -->
    <g transform="translate(230.541387 72.389143) scale(0.082649 -0.082649)">
     <defs>
      <path id="DejaVuSans-38" d="M 2034 2216 
Q 1584 2216 1326 1975 
Q 1069 1734 1069 1313 
Q 1069 891 1326 650 
Q 1584 409 2034 409 
Q 2484 409 2743 651 
Q 3003 894 3003 1313 
Q 3003 1734 2745 1975 
Q 2488 2216 2034 2216 
z
M 1403 2484 
Q 997 2584 770 2862 
Q 544 3141 544 3541 
Q 544 4100 942 4425 
Q 1341 4750 2034 4750 
Q 2731 4750 3128 4425 
Q 3525 4100 3525 3541 
Q 3525 3141 3298 2862 
Q 3072 2584 2669 2484 
Q 3125 2378 3379 2068 
Q 3634 1759 3634 1313 
Q 3634 634 3220 271 
Q 2806 -91 2034 -91 
Q 1263 -91 848 271 
Q 434 634 434 1313 
Q 434 1759 690 2068 
Q 947 2378 1403 2484 
z
M 1172 3481 
Q 1172 3119 1398 2916 
Q 1625 2713 2034 2713 
Q 2441 2713 2670 2916 
Q 2900 3119 2900 3481 
Q 2900 3844 2670 4047 
Q 2441 4250 2034 4250 
Q 1625 4250 1398 4047 
Q 1172 3844 1172 3481 
z
" transform="scale(0.015625)"/>
     </defs>
     <use xlink:href="#DejaVuSans-67"/>
     <use xlink:href="#DejaVuSans-69" x="63.476562"/>
     <use xlink:href="#DejaVuSans-6e" x="91.259766"/>
     <use xlink:href="#DejaVuSans-69" x="154.638672"/>
     <use xlink:href="#DejaVuSans-20" x="182.421875"/>
     <use xlink:href="#DejaVuSans-3d" x="214.208984"/>
     <use xlink:href="#DejaVuSans-20" x="297.998047"/>
     <use xlink:href="#DejaVuSans-30" x="329.785156"/>
     <use xlink:href="#DejaVuSans-2e" x="393.408203"/>
     <use xlink:href="#DejaVuSans-34" x="425.195312"/>
     <use xlink:href="#DejaVuSans-39" x="488.818359"/>
     <use xlink:href="#DejaVuSans-38" x="552.441406"/>
    </g>
    <!-- samples = 200 -->
    <g transform="translate(224.845032 81.644073) scale(0.082649 -0.082649)">
     <use xlink:href="#DejaVuSans-73"/>
     <use xlink:href="#DejaVuSans-61" x="52.099609"/>
     <use xlink:href="#DejaVuSans-6d" x="113.378906"/>
     <use xlink:href="#DejaVuSans-70" x="210.791016"/>
     <use xlink:href="#DejaVuSans-6c" x="274.267578"/>
     <use xlink:href="#DejaVuSans-65" x="302.050781"/>
     <use xlink:href="#DejaVuSans-73" x="363.574219"/>
     <use xlink:href="#DejaVuSans-20" x="415.673828"/>
     <use xlink:href="#DejaVuSans-3d" x="447.460938"/>
     <use xlink:href="#DejaVuSans-20" x="531.25"/>
     <use xlink:href="#DejaVuSans-32" x="563.037109"/>
     <use xlink:href="#DejaVuSans-30" x="626.660156"/>
     <use xlink:href="#DejaVuSans-30" x="690.283203"/>
    </g>
    <!-- value = [94, 106] -->
    <g transform="translate(219.624557 90.899004) scale(0.082649 -0.082649)">
     <use xlink:href="#DejaVuSans-76"/>
     <use xlink:href="#DejaVuSans-61" x="59.179688"/>
     <use xlink:href="#DejaVuSans-6c" x="120.458984"/>
     <use xlink:href="#DejaVuSans-75" x="148.242188"/>
     <use xlink:href="#DejaVuSans-65" x="211.621094"/>
     <use xlink:href="#DejaVuSans-20" x="273.144531"/>
     <use xlink:href="#DejaVuSans-3d" x="304.931641"/>
     <use xlink:href="#DejaVuSans-20" x="388.720703"/>
     <use xlink:href="#DejaVuSans-5b" x="420.507812"/>
     <use xlink:href="#DejaVuSans-39" x="459.521484"/>
     <use xlink:href="#DejaVuSans-34" x="523.144531"/>
     <use xlink:href="#DejaVuSans-2c" x="586.767578"/>
     <use xlink:href="#DejaVuSans-20" x="618.554688"/>
     <use xlink:href="#DejaVuSans-31" x="650.341797"/>
     <use xlink:href="#DejaVuSans-30" x="713.964844"/>
     <use xlink:href="#DejaVuSans-36" x="777.587891"/>
     <use xlink:href="#DejaVuSans-5d" x="841.210938"/>
    </g>
   </g>
  </g>
 </g>
</svg>
